<svg xmlns="http://www.w3.org/2000/svg" xmlns:xlink="http://www.w3.org/1999/xlink" viewBox="0,0,256,256" width="48px" height="48px"><defs><linearGradient x1="30" y1="8" x2="41" y2="8" gradientUnits="userSpaceOnUse" id="color-1"><stop offset="0" stop-color="#363aed"></stop><stop offset="0.108" stop-color="#363aed"></stop><stop offset="0.38" stop-color="#363aed"></stop><stop offset="1" stop-color="#363aed"></stop></linearGradient></defs><g fill="none" fill-rule="nonzero" stroke="none" stroke-width="1" stroke-linecap="butt" stroke-linejoin="miter" stroke-miterlimit="10" stroke-dasharray="" stroke-dashoffset="0" font-family="none" font-weight="none" font-size="none" text-anchor="none" style="mix-blend-mode: normal"><g transform="scale(5.33333,5.33333)"><path d="M20,24c-5.523,0 -10,4.477 -10,10c0,5.523 4.477,10 10,10c5.523,0 10,-4.477 10,-10c0,-5.523 -4.477,-10 -10,-10z" fill="#363aed"></path><path d="M39,12h-9v-8h9c1.105,0 2,0.895 2,2v4c0,1.105 -0.895,2 -2,2z" fill="url(#color-1)"></path><path d="M30,4h-2c-2.209,0 -4,1.791 -4,4v26h6z" fill="#363aed"></path></g></g></svg>